<svg aria-roledescription="flowchart-v2" role="graphics-document document" viewBox="-8 -8 628.5 580" style="max-width: 100%;" xmlns="http://www.w3.org/2000/svg" width="1200" id="diagram57riskloop" height="1107"><style>#diagram57riskloop{font-family:sans-serif;font-size:20px;fill:#173750;}#diagram57riskloop .error-icon{fill:hsl(30, 61.5384615385%, 99.9019607843%);}#diagram57riskloop .error-text{fill:rgb(0.0961538462, 0.25, 0.4038461539);stroke:rgb(0.0961538462, 0.25, 0.4038461539);}#diagram57riskloop .edge-thickness-normal{stroke-width:2px;}#diagram57riskloop .edge-thickness-thick{stroke-width:3.5px;}#diagram57riskloop .edge-pattern-solid{stroke-dasharray:0;}#diagram57riskloop .edge-pattern-dashed{stroke-dasharray:3;}#diagram57riskloop .edge-pattern-dotted{stroke-dasharray:2;}#diagram57riskloop .marker{fill:#376992;stroke:#376992;}#diagram57riskloop .marker.cross{stroke:#376992;}#diagram57riskloop svg{font-family:sans-serif;font-size:20px;}#diagram57riskloop .label{font-family:sans-serif;color:#173750;}#diagram57riskloop .cluster-label text{fill:rgb(0.0961538462, 0.25, 0.4038461539);}#diagram57riskloop .cluster-label span,#diagram57riskloop p{color:rgb(0.0961538462, 0.25, 0.4038461539);}#diagram57riskloop .label text,#diagram57riskloop span,#diagram57riskloop p{fill:#173750;color:#173750;}#diagram57riskloop .node rect,#diagram57riskloop .node circle,#diagram57riskloop .node ellipse,#diagram57riskloop .node polygon,#diagram57riskloop .node path{fill:#eaf2fa;stroke:hsl(210, 21.5384615385%, 84.9019607843%);stroke-width:1px;}#diagram57riskloop .flowchart-label text{text-anchor:middle;}#diagram57riskloop .node .katex path{fill:#000;stroke:#000;stroke-width:1px;}#diagram57riskloop .node .label{text-align:center;}#diagram57riskloop .node.clickable{cursor:pointer;}#diagram57riskloop .arrowheadPath{fill:#0b0b0b;}#diagram57riskloop .edgePath .path{stroke:#376992;stroke-width:2.0px;}#diagram57riskloop .flowchart-link{stroke:#376992;fill:none;}#diagram57riskloop .edgeLabel{background-color:hsl(90, 61.5384615385%, 94.9019607843%);text-align:center;}#diagram57riskloop .edgeLabel rect{opacity:0.5;background-color:hsl(90, 61.5384615385%, 94.9019607843%);fill:hsl(90, 61.5384615385%, 94.9019607843%);}#diagram57riskloop .labelBkg{background-color:rgba(242, 250, 233.9999999999, 0.5);}#diagram57riskloop .cluster rect{fill:#fff9ed;stroke:hsl(30, 21.5384615385%, 89.9019607843%);stroke-width:1px;}#diagram57riskloop .cluster text{fill:rgb(0.0961538462, 0.25, 0.4038461539);}#diagram57riskloop .cluster span,#diagram57riskloop p{color:rgb(0.0961538462, 0.25, 0.4038461539);}#diagram57riskloop div.mermaidTooltip{position:absolute;text-align:center;max-width:200px;padding:2px;font-family:sans-serif;font-size:12px;background:hsl(30, 61.5384615385%, 99.9019607843%);border:1px solid hsl(30, 21.5384615385%, 89.9019607843%);border-radius:2px;pointer-events:none;z-index:100;}#diagram57riskloop .flowchartTitleText{text-anchor:middle;font-size:18px;fill:#173750;}#diagram57riskloop :root{--mermaid-font-family:"trebuchet ms",verdana,arial,sans-serif;}</style><g><marker orient="auto" markerHeight="12" markerWidth="12" markerUnits="userSpaceOnUse" refY="5" refX="6" viewBox="0 0 10 10" class="marker flowchart" id="diagram57riskloop_flowchart-pointEnd"><path style="stroke-width: 1; stroke-dasharray: 1, 0;" class="arrowMarkerPath" d="M 0 0 L 10 5 L 0 10 z"/></marker><marker orient="auto" markerHeight="12" markerWidth="12" markerUnits="userSpaceOnUse" refY="5" refX="4.5" viewBox="0 0 10 10" class="marker flowchart" id="diagram57riskloop_flowchart-pointStart"><path style="stroke-width: 1; stroke-dasharray: 1, 0;" class="arrowMarkerPath" d="M 0 5 L 10 10 L 10 0 z"/></marker><marker orient="auto" markerHeight="11" markerWidth="11" markerUnits="userSpaceOnUse" refY="5" refX="11" viewBox="0 0 10 10" class="marker flowchart" id="diagram57riskloop_flowchart-circleEnd"><circle style="stroke-width: 1; stroke-dasharray: 1, 0;" class="arrowMarkerPath" r="5" cy="5" cx="5"/></marker><marker orient="auto" markerHeight="11" markerWidth="11" markerUnits="userSpaceOnUse" refY="5" refX="-1" viewBox="0 0 10 10" class="marker flowchart" id="diagram57riskloop_flowchart-circleStart"><circle style="stroke-width: 1; stroke-dasharray: 1, 0;" class="arrowMarkerPath" r="5" cy="5" cx="5"/></marker><marker orient="auto" markerHeight="11" markerWidth="11" markerUnits="userSpaceOnUse" refY="5.2" refX="12" viewBox="0 0 11 11" class="marker cross flowchart" id="diagram57riskloop_flowchart-crossEnd"><path style="stroke-width: 2; stroke-dasharray: 1, 0;" class="arrowMarkerPath" d="M 1,1 l 9,9 M 10,1 l -9,9"/></marker><marker orient="auto" markerHeight="11" markerWidth="11" markerUnits="userSpaceOnUse" refY="5.2" refX="-1" viewBox="0 0 11 11" class="marker cross flowchart" id="diagram57riskloop_flowchart-crossStart"><path style="stroke-width: 2; stroke-dasharray: 1, 0;" class="arrowMarkerPath" d="M 1,1 l 9,9 M 10,1 l -9,9"/></marker><g class="root"><g class="clusters"/><g class="edgePaths"><path marker-end="url(#diagram57riskloop_flowchart-pointEnd)" style="fill:none;" class="edge-thickness-normal edge-pattern-solid flowchart-link LS-I LE-A" id="L-I-A-0" d="M236.25,118.42L286.042,125.516C335.833,132.613,435.417,146.807,484.498,157.206C533.579,167.606,532.159,174.212,531.448,177.515L530.738,180.818"/><path marker-end="url(#diagram57riskloop_flowchart-pointEnd)" style="fill:none;" class="edge-thickness-normal edge-pattern-solid flowchart-link LS-A LE-P" id="L-A-P-0" d="M525,229L525,233.167C525,237.333,525,245.667,520.215,253.466C515.43,261.265,505.861,268.53,501.076,272.163L496.291,275.795"/><path marker-end="url(#diagram57riskloop_flowchart-pointEnd)" style="fill:none;" class="edge-thickness-normal edge-pattern-solid flowchart-link LS-P LE-T" id="L-P-T-0" d="M463.75,322L463.75,326.167C463.75,330.333,463.75,338.667,457.672,346.54C451.593,354.414,439.437,361.827,433.359,365.534L427.28,369.241"/><path marker-end="url(#diagram57riskloop_flowchart-pointEnd)" style="fill:none;" class="edge-thickness-normal edge-pattern-solid flowchart-link LS-T LE-K" id="L-T-K-0" d="M312.872,415L290.31,421.5C267.748,428,222.624,441,191.51,455.721C160.396,470.442,143.291,486.885,134.739,495.106L126.187,503.327"/><path marker-end="url(#diagram57riskloop_flowchart-pointEnd)" style="fill:none;" class="edge-thickness-normal edge-pattern-solid flowchart-link LS-K LE-I" id="L-K-I-0" d="M82.685,507L75.57,498.167C68.456,489.333,54.228,471.667,47.114,452.75C40,433.833,40,413.667,40,395.833C40,378,40,362.5,40,347C40,331.5,40,316,40,300.5C40,285,40,269.5,40,254C40,238.5,40,223,40,207.5C40,192,40,176.5,62.69,162.498C85.38,148.495,130.76,135.99,153.45,129.738L176.14,123.486"/><path style="fill:none;" class="edge-thickness-normal edge-pattern-solid flowchart-link LS-M LE-I" id="L-M-I-0" d="M228.239,43L224.991,47.167C221.743,51.333,215.246,59.667,211.998,68C208.75,76.333,208.75,84.667,208.75,88.833L208.75,93"/><path style="fill:none;" class="edge-thickness-normal edge-pattern-solid flowchart-link LS-M LE-A" id="L-M-A-0" d="M292.5,31.372L321.875,37.476C351.25,43.581,410,55.791,439.375,69.645C468.75,83.5,468.75,99,468.75,114.5C468.75,130,468.75,145.5,473.79,157.417C478.831,169.333,488.911,177.667,493.952,181.833L498.992,186"/><path style="fill:none;" class="edge-thickness-normal edge-pattern-solid flowchart-link LS-M LE-P" id="L-M-P-0" d="M292.5,35.984L310,41.32C327.5,46.656,362.5,57.328,380,70.414C397.5,83.5,397.5,99,397.5,114.5C397.5,130,397.5,145.5,397.5,161C397.5,176.5,397.5,192,397.5,207.5C397.5,223,397.5,238.5,403.436,250.417C409.373,262.333,421.246,270.667,427.182,274.833L433.118,279"/><path style="fill:none;" class="edge-thickness-normal edge-pattern-solid flowchart-link LS-M LE-T" id="L-M-T-0" d="M275.632,43L281.568,47.167C287.504,51.333,299.377,59.667,305.314,71.583C311.25,83.5,311.25,99,311.25,114.5C311.25,130,311.25,145.5,311.25,161C311.25,176.5,311.25,192,311.25,207.5C311.25,223,311.25,238.5,311.25,254C311.25,269.5,311.25,285,311.25,300.5C311.25,316,311.25,331.5,318.082,343.417C324.915,355.333,338.58,363.667,345.412,367.833L352.245,372"/><path style="fill:none;" class="edge-thickness-normal edge-pattern-solid flowchart-link LS-M LE-K" id="L-M-K-0" d="M197.5,36.733L181.25,41.944C165,47.155,132.5,57.578,116.25,70.539C100,83.5,100,99,100,114.5C100,130,100,145.5,100,161C100,176.5,100,192,100,207.5C100,223,100,238.5,100,254C100,269.5,100,285,100,300.5C100,316,100,331.5,100,347C100,362.5,100,378,100,395.833C100,413.667,100,433.833,100,452.75C100,471.667,100,489.333,100,498.167L100,507"/><path marker-end="url(#diagram57riskloop_flowchart-pointEnd)" style="fill:none;" class="edge-thickness-normal edge-pattern-solid flowchart-link LS-T LE-Q" id="L-T-Q-0" d="M387.5,415L387.5,421.5C387.5,428,387.5,441,384.329,453.227C381.158,465.454,374.816,476.909,371.644,482.636L368.473,488.363"/><path marker-end="url(#diagram57riskloop_flowchart-pointEnd)" style="fill:none;" class="edge-thickness-normal edge-pattern-solid flowchart-link LS-Q LE-I" id="L-Q-I-0" d="M280.73,493L268.733,486.5C256.737,480,232.743,467,220.747,450.417C208.75,433.833,208.75,413.667,208.75,395.833C208.75,378,208.75,362.5,208.75,347C208.75,331.5,208.75,316,208.75,300.5C208.75,285,208.75,269.5,208.75,254C208.75,238.5,208.75,223,208.75,207.5C208.75,192,208.75,176.5,208.75,165.467C208.75,154.433,208.75,147.867,208.75,144.583L208.75,141.3"/></g><g class="edgeLabels"><g class="edgeLabel"><g transform="translate(0, 0)" class="label"><foreignObject height="0" width="0"><div style="display: inline-block; white-space: nowrap;" xmlns="http://www.w3.org/1999/xhtml"><span class="edgeLabel"></span></div></foreignObject></g></g><g class="edgeLabel"><g transform="translate(0, 0)" class="label"><foreignObject height="0" width="0"><div style="display: inline-block; white-space: nowrap;" xmlns="http://www.w3.org/1999/xhtml"><span class="edgeLabel"></span></div></foreignObject></g></g><g class="edgeLabel"><g transform="translate(0, 0)" class="label"><foreignObject height="0" width="0"><div style="display: inline-block; white-space: nowrap;" xmlns="http://www.w3.org/1999/xhtml"><span class="edgeLabel"></span></div></foreignObject></g></g><g class="edgeLabel"><g transform="translate(0, 0)" class="label"><foreignObject height="0" width="0"><div style="display: inline-block; white-space: nowrap;" xmlns="http://www.w3.org/1999/xhtml"><span class="edgeLabel"></span></div></foreignObject></g></g><g transform="translate(40, 300.5)" class="edgeLabel"><g transform="translate(-40, -14)" class="label"><foreignObject height="28" width="80"><div style="display: inline-block; white-space: nowrap;" xmlns="http://www.w3.org/1999/xhtml"><span class="edgeLabel">持续更新</span></div></foreignObject></g></g><g class="edgeLabel"><g transform="translate(0, 0)" class="label"><foreignObject height="0" width="0"><div style="display: inline-block; white-space: nowrap;" xmlns="http://www.w3.org/1999/xhtml"><span class="edgeLabel"></span></div></foreignObject></g></g><g class="edgeLabel"><g transform="translate(0, 0)" class="label"><foreignObject height="0" width="0"><div style="display: inline-block; white-space: nowrap;" xmlns="http://www.w3.org/1999/xhtml"><span class="edgeLabel"></span></div></foreignObject></g></g><g class="edgeLabel"><g transform="translate(0, 0)" class="label"><foreignObject height="0" width="0"><div style="display: inline-block; white-space: nowrap;" xmlns="http://www.w3.org/1999/xhtml"><span class="edgeLabel"></span></div></foreignObject></g></g><g class="edgeLabel"><g transform="translate(0, 0)" class="label"><foreignObject height="0" width="0"><div style="display: inline-block; white-space: nowrap;" xmlns="http://www.w3.org/1999/xhtml"><span class="edgeLabel"></span></div></foreignObject></g></g><g class="edgeLabel"><g transform="translate(0, 0)" class="label"><foreignObject height="0" width="0"><div style="display: inline-block; white-space: nowrap;" xmlns="http://www.w3.org/1999/xhtml"><span class="edgeLabel"></span></div></foreignObject></g></g><g transform="translate(387.5, 454)" class="edgeLabel"><g transform="translate(-50, -14)" class="label"><foreignObject height="28" width="100"><div style="display: inline-block; white-space: nowrap;" xmlns="http://www.w3.org/1999/xhtml"><span class="edgeLabel">事件已发生</span></div></foreignObject></g></g><g class="edgeLabel"><g transform="translate(0, 0)" class="label"><foreignObject height="0" width="0"><div style="display: inline-block; white-space: nowrap;" xmlns="http://www.w3.org/1999/xhtml"><span class="edgeLabel"></span></div></foreignObject></g></g></g><g class="nodes"><g transform="translate(208.75, 114.5)" data-id="I" data-node="true" id="flowchart-I-154" class="node default default flowchart-label"><rect height="43" width="55" y="-21.5" x="-27.5" ry="0" rx="0" style="" class="basic label-container"/><g transform="translate(-20, -14)" style="" class="label"><rect/><foreignObject height="28" width="40"><div style="display: inline-block; white-space: nowrap;" xmlns="http://www.w3.org/1999/xhtml"><span class="nodeLabel">识别</span></div></foreignObject></g></g><g transform="translate(525, 207.5)" data-id="A" data-node="true" id="flowchart-A-155" class="node default default flowchart-label"><rect height="43" width="175" y="-21.5" x="-87.5" ry="0" rx="0" style="" class="basic label-container"/><g transform="translate(-80, -14)" style="" class="label"><rect/><foreignObject height="28" width="160"><div style="display: inline-block; white-space: nowrap;" xmlns="http://www.w3.org/1999/xhtml"><span class="nodeLabel">分析：概率与影响</span></div></foreignObject></g></g><g transform="translate(463.75, 300.5)" data-id="P" data-node="true" id="flowchart-P-157" class="node default default flowchart-label"><rect height="43" width="235" y="-21.5" x="-117.5" ry="0" rx="0" style="" class="basic label-container"/><g transform="translate(-110, -14)" style="" class="label"><rect/><foreignObject height="28" width="220"><div style="display: inline-block; white-space: nowrap;" xmlns="http://www.w3.org/1999/xhtml"><span class="nodeLabel">计划：应对、责任、触发</span></div></foreignObject></g></g><g transform="translate(387.5, 393.5)" data-id="T" data-node="true" id="flowchart-T-159" class="node default default flowchart-label"><rect height="43" width="215" y="-21.5" x="-107.5" ry="0" rx="0" style="" class="basic label-container"/><g transform="translate(-100, -14)" style="" class="label"><rect/><foreignObject height="28" width="200"><div style="display: inline-block; white-space: nowrap;" xmlns="http://www.w3.org/1999/xhtml"><span class="nodeLabel">跟踪：实际条件与信号</span></div></foreignObject></g></g><g transform="translate(100, 528.5)" data-id="K" data-node="true" id="flowchart-K-161" class="node default default flowchart-label"><rect height="43" width="175" y="-21.5" x="-87.5" ry="0" rx="0" style="" class="basic label-container"/><g transform="translate(-80, -14)" style="" class="label"><rect/><foreignObject height="28" width="160"><div style="display: inline-block; white-space: nowrap;" xmlns="http://www.w3.org/1999/xhtml"><span class="nodeLabel">控制：执行和调整</span></div></foreignObject></g></g><g transform="translate(245, 21.5)" data-id="M" data-node="true" id="flowchart-M-164" class="node default default flowchart-label"><rect height="43" width="95" y="-21.5" x="-47.5" ry="0" rx="0" style="" class="basic label-container"/><g transform="translate(-40, -14)" style="" class="label"><rect/><foreignObject height="28" width="80"><div style="display: inline-block; white-space: nowrap;" xmlns="http://www.w3.org/1999/xhtml"><span class="nodeLabel">沟通贯穿</span></div></foreignObject></g></g><g transform="translate(346.25, 528.5)" data-id="Q" data-node="true" id="flowchart-Q-175" class="node default default flowchart-label"><rect height="71" width="155" y="-35.5" x="-77.5" ry="0" rx="0" style="" class="basic label-container"/><g transform="translate(-70, -28)" style="" class="label"><rect/><foreignObject height="56" width="140"><div style="display: inline-block; white-space: nowrap;" xmlns="http://www.w3.org/1999/xhtml"><span class="nodeLabel">处理问题<br />并评估余下风险</span></div></foreignObject></g></g></g></g></g></svg>