<svg aria-roledescription="flowchart-v2" role="graphics-document document" viewBox="-8 -8 765.58203125 956" style="max-width: 100%;" xmlns="http://www.w3.org/2000/svg" width="1200" id="diagram241composition" height="1498"><style>#diagram241composition{font-family:sans-serif;font-size:20px;fill:#173750;}#diagram241composition .error-icon{fill:hsl(30, 61.5384615385%, 99.9019607843%);}#diagram241composition .error-text{fill:rgb(0.0961538462, 0.25, 0.4038461539);stroke:rgb(0.0961538462, 0.25, 0.4038461539);}#diagram241composition .edge-thickness-normal{stroke-width:2px;}#diagram241composition .edge-thickness-thick{stroke-width:3.5px;}#diagram241composition .edge-pattern-solid{stroke-dasharray:0;}#diagram241composition .edge-pattern-dashed{stroke-dasharray:3;}#diagram241composition .edge-pattern-dotted{stroke-dasharray:2;}#diagram241composition .marker{fill:#376992;stroke:#376992;}#diagram241composition .marker.cross{stroke:#376992;}#diagram241composition svg{font-family:sans-serif;font-size:20px;}#diagram241composition .label{font-family:sans-serif;color:#173750;}#diagram241composition .cluster-label text{fill:rgb(0.0961538462, 0.25, 0.4038461539);}#diagram241composition .cluster-label span,#diagram241composition p{color:rgb(0.0961538462, 0.25, 0.4038461539);}#diagram241composition .label text,#diagram241composition span,#diagram241composition p{fill:#173750;color:#173750;}#diagram241composition .node rect,#diagram241composition .node circle,#diagram241composition .node ellipse,#diagram241composition .node polygon,#diagram241composition .node path{fill:#eaf2fa;stroke:hsl(210, 21.5384615385%, 84.9019607843%);stroke-width:1px;}#diagram241composition .flowchart-label text{text-anchor:middle;}#diagram241composition .node .katex path{fill:#000;stroke:#000;stroke-width:1px;}#diagram241composition .node .label{text-align:center;}#diagram241composition .node.clickable{cursor:pointer;}#diagram241composition .arrowheadPath{fill:#0b0b0b;}#diagram241composition .edgePath .path{stroke:#376992;stroke-width:2.0px;}#diagram241composition .flowchart-link{stroke:#376992;fill:none;}#diagram241composition .edgeLabel{background-color:hsl(90, 61.5384615385%, 94.9019607843%);text-align:center;}#diagram241composition .edgeLabel rect{opacity:0.5;background-color:hsl(90, 61.5384615385%, 94.9019607843%);fill:hsl(90, 61.5384615385%, 94.9019607843%);}#diagram241composition .labelBkg{background-color:rgba(242, 250, 233.9999999999, 0.5);}#diagram241composition .cluster rect{fill:#fff9ed;stroke:hsl(30, 21.5384615385%, 89.9019607843%);stroke-width:1px;}#diagram241composition .cluster text{fill:rgb(0.0961538462, 0.25, 0.4038461539);}#diagram241composition .cluster span,#diagram241composition p{color:rgb(0.0961538462, 0.25, 0.4038461539);}#diagram241composition div.mermaidTooltip{position:absolute;text-align:center;max-width:200px;padding:2px;font-family:sans-serif;font-size:12px;background:hsl(30, 61.5384615385%, 99.9019607843%);border:1px solid hsl(30, 21.5384615385%, 89.9019607843%);border-radius:2px;pointer-events:none;z-index:100;}#diagram241composition .flowchartTitleText{text-anchor:middle;font-size:18px;fill:#173750;}#diagram241composition :root{--mermaid-font-family:"trebuchet ms",verdana,arial,sans-serif;}</style><g><marker orient="auto" markerHeight="12" markerWidth="12" markerUnits="userSpaceOnUse" refY="5" refX="6" viewBox="0 0 10 10" class="marker flowchart" id="diagram241composition_flowchart-pointEnd"><path style="stroke-width: 1; stroke-dasharray: 1, 0;" class="arrowMarkerPath" d="M 0 0 L 10 5 L 0 10 z"/></marker><marker orient="auto" markerHeight="12" markerWidth="12" markerUnits="userSpaceOnUse" refY="5" refX="4.5" viewBox="0 0 10 10" class="marker flowchart" id="diagram241composition_flowchart-pointStart"><path style="stroke-width: 1; stroke-dasharray: 1, 0;" class="arrowMarkerPath" d="M 0 5 L 10 10 L 10 0 z"/></marker><marker orient="auto" markerHeight="11" markerWidth="11" markerUnits="userSpaceOnUse" refY="5" refX="11" viewBox="0 0 10 10" class="marker flowchart" id="diagram241composition_flowchart-circleEnd"><circle style="stroke-width: 1; stroke-dasharray: 1, 0;" class="arrowMarkerPath" r="5" cy="5" cx="5"/></marker><marker orient="auto" markerHeight="11" markerWidth="11" markerUnits="userSpaceOnUse" refY="5" refX="-1" viewBox="0 0 10 10" class="marker flowchart" id="diagram241composition_flowchart-circleStart"><circle style="stroke-width: 1; stroke-dasharray: 1, 0;" class="arrowMarkerPath" r="5" cy="5" cx="5"/></marker><marker orient="auto" markerHeight="11" markerWidth="11" markerUnits="userSpaceOnUse" refY="5.2" refX="12" viewBox="0 0 11 11" class="marker cross flowchart" id="diagram241composition_flowchart-crossEnd"><path style="stroke-width: 2; stroke-dasharray: 1, 0;" class="arrowMarkerPath" d="M 1,1 l 9,9 M 10,1 l -9,9"/></marker><marker orient="auto" markerHeight="11" markerWidth="11" markerUnits="userSpaceOnUse" refY="5.2" refX="-1" viewBox="0 0 11 11" class="marker cross flowchart" id="diagram241composition_flowchart-crossStart"><path style="stroke-width: 2; stroke-dasharray: 1, 0;" class="arrowMarkerPath" d="M 1,1 l 9,9 M 10,1 l -9,9"/></marker><g class="root"><g class="clusters"><g id="computer" class="cluster default flowchart-label"><rect height="456" width="539.58203125" y="121" x="210" ry="0" rx="0" style=""/><g transform="translate(309.791015625, 121)" class="cluster-label"><foreignObject height="28" width="340"><div style="display: inline-block; white-space: nowrap;" xmlns="http://www.w3.org/1999/xhtml"><span class="nodeLabel">嵌入式计算机的一般组成；按需求裁剪</span></div></foreignObject></g></g></g><g class="edgePaths"><path marker-end="url(#diagram241composition_flowchart-pointEnd)" style="fill:none;" class="edge-thickness-normal edge-pattern-solid flowchart-link LS-operator LE-app" id="L-operator-app-0" d="M161.878,431L184.365,437.5C206.851,444,251.824,457,287.929,469.637C324.034,482.274,351.271,494.548,364.89,500.685L378.509,506.823"/><path marker-end="url(#diagram241composition_flowchart-pointEnd)" style="fill:none;" class="edge-thickness-normal edge-pattern-solid flowchart-link LS-sensor LE-app" id="L-sensor-app-0" d="M488.551,900.818L511.757,893.681C534.962,886.545,581.374,872.273,604.579,855.053C627.785,837.833,627.785,817.667,627.785,797.5C627.785,777.333,627.785,757.167,627.785,737C627.785,716.833,627.785,696.667,627.785,676.5C627.785,656.333,627.785,636.167,627.785,619.583C627.785,603,627.785,590,611.016,579.537C594.247,569.073,560.71,561.146,543.941,557.183L527.172,553.219"/><path marker-end="url(#diagram241composition_flowchart-pointEnd)" style="fill:none;" class="edge-thickness-normal edge-pattern-solid flowchart-link LS-app LE-actuator" id="L-app-actuator-0" d="M375.659,552L364.924,556.167C354.189,560.333,332.72,568.667,321.985,579.333C311.25,590,311.25,603,311.25,615.117C311.25,627.233,311.25,638.467,311.25,644.083L311.25,649.7"/><path marker-end="url(#diagram241composition_flowchart-pointEnd)" style="fill:none;" class="edge-thickness-normal edge-pattern-solid flowchart-link LS-actuator LE-object" id="L-actuator-object-0" d="M311.25,698L311.25,704.5C311.25,711,311.25,724,311.25,736.117C311.25,748.233,311.25,759.467,311.25,765.083L311.25,770.7"/><path marker-end="url(#diagram241composition_flowchart-pointEnd)" style="fill:none;" class="edge-thickness-normal edge-pattern-solid flowchart-link LS-object LE-sensor" id="L-object-sensor-0" d="M311.25,819L311.25,825.5C311.25,832,311.25,845,323.333,857.602C335.415,870.204,359.581,882.407,371.663,888.509L383.746,894.611"/><path marker-end="url(#diagram241composition_flowchart-pointEnd)" style="fill:none;" class="edge-thickness-normal edge-pattern-solid flowchart-link LS-hw LE-os" id="L-hw-os-0" d="M478.64,189L466.666,195.5C454.692,202,430.745,215,418.771,227.117C406.797,239.233,406.797,250.467,406.797,256.083L406.797,261.7"/><path marker-end="url(#diagram241composition_flowchart-pointEnd)" style="fill:none;" class="edge-thickness-normal edge-pattern-solid flowchart-link LS-os LE-support" id="L-os-support-0" d="M406.797,310L406.797,316.5C406.797,323,406.797,336,406.797,348.117C406.797,360.233,406.797,371.467,406.797,377.083L406.797,382.7"/><path marker-end="url(#diagram241composition_flowchart-pointEnd)" style="fill:none;" class="edge-thickness-normal edge-pattern-solid flowchart-link LS-support LE-app" id="L-support-app-0" d="M406.797,431L406.797,437.5C406.797,444,406.797,457,409.074,469.18C411.351,481.36,415.905,492.72,418.182,498.4L420.459,504.081"/><path marker-end="url(#diagram241composition_flowchart-pointEnd)" style="fill:none;stroke-width:2px;stroke-dasharray:3;" class="edge-thickness-normal edge-pattern-dotted flowchart-link LS-hw LE-app" id="L-hw-app-0" d="M540.472,189L547.192,195.5C553.911,202,567.35,215,574.07,231.583C580.789,248.167,580.789,268.333,580.789,288.5C580.789,308.667,580.789,328.833,580.789,349C580.789,369.167,580.789,389.333,580.789,409.5C580.789,429.667,580.789,449.833,565.52,466.086C550.252,482.338,519.715,494.676,504.446,500.845L489.178,507.015"/><path marker-end="url(#diagram241composition_flowchart-pointEnd)" style="fill:none;stroke-width:2px;stroke-dasharray:3;" class="edge-thickness-normal edge-pattern-dotted flowchart-link LS-tools LE-computer" id="L-tools-computer-0" d="M518.246,43L518.246,49.5C518.246,56,518.246,69,518.246,81.117C518.246,93.233,518.246,104.467,518.246,110.083L518.246,115.7"/></g><g class="edgeLabels"><g transform="translate(296.796875, 470)" class="edgeLabel"><g transform="translate(-40, -14)" class="label"><foreignObject height="28" width="80"><div style="display: inline-block; white-space: nowrap;" xmlns="http://www.w3.org/1999/xhtml"><span class="edgeLabel">人机接口</span></div></foreignObject></g></g><g transform="translate(627.78515625, 737)" class="edgeLabel"><g transform="translate(-40, -14)" class="label"><foreignObject height="28" width="80"><div style="display: inline-block; white-space: nowrap;" xmlns="http://www.w3.org/1999/xhtml"><span class="edgeLabel">输入采样</span></div></foreignObject></g></g><g transform="translate(311.25, 616)" class="edgeLabel"><g transform="translate(-60, -14)" class="label"><foreignObject height="28" width="120"><div style="display: inline-block; white-space: nowrap;" xmlns="http://www.w3.org/1999/xhtml"><span class="edgeLabel">输出控制命令</span></div></foreignObject></g></g><g transform="translate(311.25, 737)" class="edgeLabel"><g transform="translate(-60, -14)" class="label"><foreignObject height="28" width="120"><div style="display: inline-block; white-space: nowrap;" xmlns="http://www.w3.org/1999/xhtml"><span class="edgeLabel">改变物理状态</span></div></foreignObject></g></g><g transform="translate(311.25, 858)" class="edgeLabel"><g transform="translate(-40, -14)" class="label"><foreignObject height="28" width="80"><div style="display: inline-block; white-space: nowrap;" xmlns="http://www.w3.org/1999/xhtml"><span class="edgeLabel">温度变化</span></div></foreignObject></g></g><g transform="translate(406.796875, 228)" class="edgeLabel"><g transform="translate(-60, -14)" class="label"><foreignObject height="28" width="120"><div style="display: inline-block; white-space: nowrap;" xmlns="http://www.w3.org/1999/xhtml"><span class="edgeLabel">提供执行环境</span></div></foreignObject></g></g><g transform="translate(406.796875, 349)" class="edgeLabel"><g transform="translate(-60, -14)" class="label"><foreignObject height="28" width="120"><div style="display: inline-block; white-space: nowrap;" xmlns="http://www.w3.org/1999/xhtml"><span class="edgeLabel">提供公共能力</span></div></foreignObject></g></g><g transform="translate(406.796875, 470)" class="edgeLabel"><g transform="translate(-50, -14)" class="label"><foreignObject height="28" width="100"><div style="display: inline-block; white-space: nowrap;" xmlns="http://www.w3.org/1999/xhtml"><span class="edgeLabel">被应用使用</span></div></foreignObject></g></g><g transform="translate(580.7890625, 349)" class="edgeLabel"><g transform="translate(-93.9921875, -14)" class="label"><foreignObject height="28" width="187.984375"><div style="display: inline-block; white-space: nowrap;" xmlns="http://www.w3.org/1999/xhtml"><span class="edgeLabel">裸机方案可不配置OS</span></div></foreignObject></g></g><g transform="translate(518.24609375, 82)" class="edgeLabel"><g transform="translate(-85, -14)" class="label"><foreignObject height="28" width="170"><div style="display: inline-block; white-space: nowrap;" xmlns="http://www.w3.org/1999/xhtml"><span class="edgeLabel">生成/加载目标程序</span></div></foreignObject></g></g></g><g class="nodes"><g transform="translate(518.24609375, 167.5)" data-id="hw" data-node="true" id="flowchart-hw-34" class="node default default flowchart-label"><rect height="43" width="377.1875" y="-21.5" x="-188.59375" ry="0" rx="0" style="" class="basic label-container"/><g transform="translate(-181.09375, -14)" style="" class="label"><rect/><foreignObject height="28" width="362.1875"><div style="display: inline-block; white-space: nowrap;" xmlns="http://www.w3.org/1999/xhtml"><span class="nodeLabel">处理器＋存储/定时/总线/I-O等支撑硬件</span></div></foreignObject></g></g><g transform="translate(406.796875, 288.5)" data-id="os" data-node="true" id="flowchart-os-35" class="node default default flowchart-label"><rect height="43" width="242.984375" y="-21.5" x="-121.4921875" ry="0" rx="0" style="" class="basic label-container"/><g transform="translate(-113.9921875, -14)" style="" class="label"><rect/><foreignObject height="28" width="227.984375"><div style="display: inline-block; white-space: nowrap;" xmlns="http://www.w3.org/1999/xhtml"><span class="nodeLabel">可选OS：管理任务与资源</span></div></foreignObject></g></g><g transform="translate(406.796875, 409.5)" data-id="support" data-node="true" id="flowchart-support-36" class="node default default flowchart-label"><rect height="43" width="235" y="-21.5" x="-117.5" ry="0" rx="0" style="" class="basic label-container"/><g transform="translate(-110, -14)" style="" class="label"><rect/><foreignObject height="28" width="220"><div style="display: inline-block; white-space: nowrap;" xmlns="http://www.w3.org/1999/xhtml"><span class="nodeLabel">支撑软件：公共库与服务</span></div></foreignObject></g></g><g transform="translate(431.05078125, 530.5)" data-id="app" data-node="true" id="flowchart-app-25" class="node default default flowchart-label"><rect height="43" width="255" y="-21.5" x="-127.5" ry="0" rx="0" style="" class="basic label-container"/><g transform="translate(-120, -14)" style="" class="label"><rect/><foreignObject height="28" width="240"><div style="display: inline-block; white-space: nowrap;" xmlns="http://www.w3.org/1999/xhtml"><span class="nodeLabel">应用软件：比较目标与测量</span></div></foreignObject></g></g><g transform="translate(87.5, 409.5)" data-id="operator" data-node="true" id="flowchart-operator-24" class="node default default flowchart-label"><rect height="43" width="175" y="-21.5" x="-87.5" ry="0" rx="0" style="" class="basic label-container"/><g transform="translate(-80, -14)" style="" class="label"><rect/><foreignObject height="28" width="160"><div style="display: inline-block; white-space: nowrap;" xmlns="http://www.w3.org/1999/xhtml"><span class="nodeLabel">操作者：设定温度</span></div></foreignObject></g></g><g transform="translate(431.05078125, 918.5)" data-id="sensor" data-node="true" id="flowchart-sensor-26" class="node default default flowchart-label"><rect height="43" width="115" y="-21.5" x="-57.5" ry="0" rx="0" style="" class="basic label-container"/><g transform="translate(-50, -14)" style="" class="label"><rect/><foreignObject height="28" width="100"><div style="display: inline-block; white-space: nowrap;" xmlns="http://www.w3.org/1999/xhtml"><span class="nodeLabel">温度传感器</span></div></foreignObject></g></g><g transform="translate(311.25, 676.5)" data-id="actuator" data-node="true" id="flowchart-actuator-29" class="node default default flowchart-label"><rect height="43" width="195" y="-21.5" x="-97.5" ry="0" rx="0" style="" class="basic label-container"/><g transform="translate(-90, -14)" style="" class="label"><rect/><foreignObject height="28" width="180"><div style="display: inline-block; white-space: nowrap;" xmlns="http://www.w3.org/1999/xhtml"><span class="nodeLabel">执行器：控制加热器</span></div></foreignObject></g></g><g transform="translate(311.25, 797.5)" data-id="object" data-node="true" id="flowchart-object-31" class="node default default flowchart-label"><rect height="43" width="175" y="-21.5" x="-87.5" ry="0" rx="0" style="" class="basic label-container"/><g transform="translate(-80, -14)" style="" class="label"><rect/><foreignObject height="28" width="160"><div style="display: inline-block; white-space: nowrap;" xmlns="http://www.w3.org/1999/xhtml"><span class="nodeLabel">受控对象：小温箱</span></div></foreignObject></g></g><g transform="translate(518.24609375, 21.5)" data-id="tools" data-node="true" id="flowchart-tools-46" class="node default default flowchart-label"><rect height="43" width="235" y="-21.5" x="-117.5" ry="0" rx="0" style="" class="basic label-container"/><g transform="translate(-110, -14)" style="" class="label"><rect/><foreignObject height="28" width="220"><div style="display: inline-block; white-space: nowrap;" xmlns="http://www.w3.org/1999/xhtml"><span class="nodeLabel">宿主开发工具与调试环境</span></div></foreignObject></g></g></g></g></g></svg>