<svg aria-roledescription="flowchart-v2" role="graphics-document document" viewBox="-8 -8 1496 543" style="max-width: 100%;" xmlns="http://www.w3.org/2000/svg" width="1200" id="diagrams31definition" height="436"><style>#diagrams31definition{font-family:sans-serif;font-size:20px;fill:#173750;}#diagrams31definition .error-icon{fill:hsl(30, 61.5384615385%, 99.9019607843%);}#diagrams31definition .error-text{fill:rgb(0.0961538462, 0.25, 0.4038461539);stroke:rgb(0.0961538462, 0.25, 0.4038461539);}#diagrams31definition .edge-thickness-normal{stroke-width:2px;}#diagrams31definition .edge-thickness-thick{stroke-width:3.5px;}#diagrams31definition .edge-pattern-solid{stroke-dasharray:0;}#diagrams31definition .edge-pattern-dashed{stroke-dasharray:3;}#diagrams31definition .edge-pattern-dotted{stroke-dasharray:2;}#diagrams31definition .marker{fill:#376992;stroke:#376992;}#diagrams31definition .marker.cross{stroke:#376992;}#diagrams31definition svg{font-family:sans-serif;font-size:20px;}#diagrams31definition .label{font-family:sans-serif;color:#173750;}#diagrams31definition .cluster-label text{fill:rgb(0.0961538462, 0.25, 0.4038461539);}#diagrams31definition .cluster-label span,#diagrams31definition p{color:rgb(0.0961538462, 0.25, 0.4038461539);}#diagrams31definition .label text,#diagrams31definition span,#diagrams31definition p{fill:#173750;color:#173750;}#diagrams31definition .node rect,#diagrams31definition .node circle,#diagrams31definition .node ellipse,#diagrams31definition .node polygon,#diagrams31definition .node path{fill:#eaf2fa;stroke:hsl(210, 21.5384615385%, 84.9019607843%);stroke-width:1px;}#diagrams31definition .flowchart-label text{text-anchor:middle;}#diagrams31definition .node .katex path{fill:#000;stroke:#000;stroke-width:1px;}#diagrams31definition .node .label{text-align:center;}#diagrams31definition .node.clickable{cursor:pointer;}#diagrams31definition .arrowheadPath{fill:#0b0b0b;}#diagrams31definition .edgePath .path{stroke:#376992;stroke-width:2.0px;}#diagrams31definition .flowchart-link{stroke:#376992;fill:none;}#diagrams31definition .edgeLabel{background-color:hsl(90, 61.5384615385%, 94.9019607843%);text-align:center;}#diagrams31definition .edgeLabel rect{opacity:0.5;background-color:hsl(90, 61.5384615385%, 94.9019607843%);fill:hsl(90, 61.5384615385%, 94.9019607843%);}#diagrams31definition .labelBkg{background-color:rgba(242, 250, 233.9999999999, 0.5);}#diagrams31definition .cluster rect{fill:#fff9ed;stroke:hsl(30, 21.5384615385%, 89.9019607843%);stroke-width:1px;}#diagrams31definition .cluster text{fill:rgb(0.0961538462, 0.25, 0.4038461539);}#diagrams31definition .cluster span,#diagrams31definition p{color:rgb(0.0961538462, 0.25, 0.4038461539);}#diagrams31definition div.mermaidTooltip{position:absolute;text-align:center;max-width:200px;padding:2px;font-family:sans-serif;font-size:12px;background:hsl(30, 61.5384615385%, 99.9019607843%);border:1px solid hsl(30, 21.5384615385%, 89.9019607843%);border-radius:2px;pointer-events:none;z-index:100;}#diagrams31definition .flowchartTitleText{text-anchor:middle;font-size:18px;fill:#173750;}#diagrams31definition :root{--mermaid-font-family:"trebuchet ms",verdana,arial,sans-serif;}</style><g><marker orient="auto" markerHeight="12" markerWidth="12" markerUnits="userSpaceOnUse" refY="5" refX="6" viewBox="0 0 10 10" class="marker flowchart" id="diagrams31definition_flowchart-pointEnd"><path style="stroke-width: 1; stroke-dasharray: 1, 0;" class="arrowMarkerPath" d="M 0 0 L 10 5 L 0 10 z"/></marker><marker orient="auto" markerHeight="12" markerWidth="12" markerUnits="userSpaceOnUse" refY="5" refX="4.5" viewBox="0 0 10 10" class="marker flowchart" id="diagrams31definition_flowchart-pointStart"><path style="stroke-width: 1; stroke-dasharray: 1, 0;" class="arrowMarkerPath" d="M 0 5 L 10 10 L 10 0 z"/></marker><marker orient="auto" markerHeight="11" markerWidth="11" markerUnits="userSpaceOnUse" refY="5" refX="11" viewBox="0 0 10 10" class="marker flowchart" id="diagrams31definition_flowchart-circleEnd"><circle style="stroke-width: 1; stroke-dasharray: 1, 0;" class="arrowMarkerPath" r="5" cy="5" cx="5"/></marker><marker orient="auto" markerHeight="11" markerWidth="11" markerUnits="userSpaceOnUse" refY="5" refX="-1" viewBox="0 0 10 10" class="marker flowchart" id="diagrams31definition_flowchart-circleStart"><circle style="stroke-width: 1; stroke-dasharray: 1, 0;" class="arrowMarkerPath" r="5" cy="5" cx="5"/></marker><marker orient="auto" markerHeight="11" markerWidth="11" markerUnits="userSpaceOnUse" refY="5.2" refX="12" viewBox="0 0 11 11" class="marker cross flowchart" id="diagrams31definition_flowchart-crossEnd"><path style="stroke-width: 2; stroke-dasharray: 1, 0;" class="arrowMarkerPath" d="M 1,1 l 9,9 M 10,1 l -9,9"/></marker><marker orient="auto" markerHeight="11" markerWidth="11" markerUnits="userSpaceOnUse" refY="5.2" refX="-1" viewBox="0 0 11 11" class="marker cross flowchart" id="diagrams31definition_flowchart-crossStart"><path style="stroke-width: 2; stroke-dasharray: 1, 0;" class="arrowMarkerPath" d="M 1,1 l 9,9 M 10,1 l -9,9"/></marker><g class="root"><g class="clusters"/><g class="edgePaths"><path style="fill:none;" class="edge-thickness-normal edge-pattern-solid flowchart-link LS-IS LE-C" id="L-IS-C-0" d="M575,70.664L547.5,77.22C520,83.776,465,96.888,437.5,109.944C410,123,410,136,410,142.5L410,149"/><path style="fill:none;" class="edge-thickness-normal edge-pattern-solid flowchart-link LS-IS LE-F" id="L-IS-F-0" d="M870,67.351L902.917,74.46C935.833,81.568,1001.667,95.784,1034.583,109.392C1067.5,123,1067.5,136,1067.5,142.5L1067.5,149"/><path style="fill:none;" class="edge-thickness-normal edge-pattern-solid flowchart-link LS-C LE-H" id="L-C-H-0" d="M362.5,176.275L306.667,183.062C250.833,189.85,139.167,203.425,83.333,214.379C27.5,225.333,27.5,233.667,27.5,237.833L27.5,242"/><path style="fill:none;" class="edge-thickness-normal edge-pattern-solid flowchart-link LS-C LE-N" id="L-C-N-0" d="M362.5,180.209L332.5,186.341C302.5,192.473,242.5,204.736,212.5,215.035C182.5,225.333,182.5,233.667,182.5,237.833L182.5,242"/><path style="fill:none;" class="edge-thickness-normal edge-pattern-solid flowchart-link LS-C LE-S" id="L-C-S-0" d="M376.478,192L369.982,196.167C363.486,200.333,350.493,208.667,343.996,217C337.5,225.333,337.5,233.667,337.5,237.833L337.5,242"/><path style="fill:none;" class="edge-thickness-normal edge-pattern-solid flowchart-link LS-C LE-D" id="L-C-D-0" d="M443.522,192L450.018,196.167C456.514,200.333,469.507,208.667,476.004,217C482.5,225.333,482.5,233.667,482.5,237.833L482.5,242"/><path style="fill:none;" class="edge-thickness-normal edge-pattern-solid flowchart-link LS-C LE-U" id="L-C-U-0" d="M457.5,180.655L485.833,186.713C514.167,192.77,570.833,204.885,599.167,218.693C627.5,232.5,627.5,248,627.5,265.833C627.5,283.667,627.5,303.833,627.5,320.417C627.5,337,627.5,350,627.5,356.5L627.5,363"/><path style="fill:none;" class="edge-thickness-normal edge-pattern-solid flowchart-link LS-C LE-R" id="L-C-R-0" d="M457.5,177.863L499.583,184.385C541.667,190.908,625.833,203.954,667.917,214.644C710,225.333,710,233.667,710,237.833L710,242"/><path style="fill:none;" class="edge-thickness-normal edge-pattern-solid flowchart-link LS-F LE-I" id="L-F-I-0" d="M1020,178.532L982.083,184.943C944.167,191.355,868.333,204.177,830.417,218.339C792.5,232.5,792.5,248,792.5,265.833C792.5,283.667,792.5,303.833,792.5,324C792.5,344.167,792.5,364.333,792.5,384.5C792.5,404.667,792.5,424.833,787.934,441.417C783.368,458,774.236,471,769.669,477.5L765.103,484"/><path style="fill:none;" class="edge-thickness-normal edge-pattern-solid flowchart-link LS-F LE-ST" id="L-F-ST-0" d="M1020,186.564L1005,191.636C990,196.709,960,206.855,945,216.094C930,225.333,930,233.667,930,237.833L930,242"/><path style="fill:none;" class="edge-thickness-normal edge-pattern-solid flowchart-link LS-F LE-P" id="L-F-P-0" d="M1067.5,192L1067.5,196.167C1067.5,200.333,1067.5,208.667,1067.5,220.583C1067.5,232.5,1067.5,248,1067.5,265.833C1067.5,283.667,1067.5,303.833,977.917,322.588C888.333,341.343,709.167,358.687,619.583,367.358L530,376.03"/><path style="fill:none;" class="edge-thickness-normal edge-pattern-solid flowchart-link LS-F LE-O" id="L-F-O-0" d="M1115,186.564L1130,191.636C1145,196.709,1175,206.855,1190,216.094C1205,225.333,1205,233.667,1205,237.833L1205,242"/><path style="fill:none;" class="edge-thickness-normal edge-pattern-solid flowchart-link LS-F LE-CT" id="L-F-CT-0" d="M1115,178.532L1152.917,184.943C1190.833,191.355,1266.667,204.177,1304.583,218.339C1342.5,232.5,1342.5,248,1342.5,265.833C1342.5,283.667,1342.5,303.833,1342.5,320.417C1342.5,337,1342.5,350,1342.5,356.5L1342.5,363"/><path marker-end="url(#diagrams31definition_flowchart-pointEnd)" style="fill:none;stroke-width:2px;stroke-dasharray:3;" class="edge-thickness-normal edge-pattern-dotted flowchart-link LS-R LE-CT" id="L-R-CT-0" d="M710,285L710,291.5C710,298,710,311,791.621,325.307C873.241,339.614,1036.483,355.229,1118.103,363.036L1199.724,370.843"/><path marker-end="url(#diagrams31definition_flowchart-pointEnd)" style="fill:none;stroke-width:2px;stroke-dasharray:3;" class="edge-thickness-normal edge-pattern-dotted flowchart-link LS-S LE-P" id="L-S-P-0" d="M337.5,285L337.5,291.5C337.5,298,337.5,311,348.016,323.559C358.531,336.118,379.562,348.236,390.078,354.295L400.594,360.354"/><path marker-end="url(#diagrams31definition_flowchart-pointEnd)" style="fill:none;stroke-width:2px;stroke-dasharray:3;" class="edge-thickness-normal edge-pattern-dotted flowchart-link LS-D LE-P" id="L-D-P-0" d="M482.5,285L482.5,291.5C482.5,298,482.5,311,478.69,323.263C474.879,335.526,467.259,347.053,463.448,352.816L459.638,358.579"/><path marker-end="url(#diagrams31definition_flowchart-pointEnd)" style="fill:none;stroke-width:2px;stroke-dasharray:3;" class="edge-thickness-normal edge-pattern-dotted flowchart-link LS-U LE-I" id="L-U-I-0" d="M627.5,406L627.5,412.5C627.5,419,627.5,432,639.869,444.609C652.238,457.218,676.977,469.435,689.346,475.544L701.715,481.653"/><path marker-end="url(#diagrams31definition_flowchart-pointEnd)" style="fill:none;stroke-width:2px;stroke-dasharray:3;" class="edge-thickness-normal edge-pattern-dotted flowchart-link LS-O LE-U" id="L-O-U-0" d="M1205,285L1205,291.5C1205,298,1205,311,1117.545,326.662C1030.09,342.324,855.181,360.648,767.726,369.81L680.271,378.972"/></g><g class="edgeLabels"><g transform="translate(410, 110)" class="edgeLabel"><g transform="translate(-80, -14)" class="label"><foreignObject height="28" width="160"><div style="display: inline-block; white-space: nowrap;" xmlns="http://www.w3.org/1999/xhtml"><span class="edgeLabel">组成：有哪些要素</span></div></foreignObject></g></g><g transform="translate(1067.5, 110)" class="edgeLabel"><g transform="translate(-90, -14)" class="label"><foreignObject height="28" width="180"><div style="display: inline-block; white-space: nowrap;" xmlns="http://www.w3.org/1999/xhtml"><span class="edgeLabel">功能：完成哪些活动</span></div></foreignObject></g></g><g class="edgeLabel"><g transform="translate(0, 0)" class="label"><foreignObject height="0" width="0"><div style="display: inline-block; white-space: nowrap;" xmlns="http://www.w3.org/1999/xhtml"><span class="edgeLabel"></span></div></foreignObject></g></g><g class="edgeLabel"><g transform="translate(0, 0)" class="label"><foreignObject height="0" width="0"><div style="display: inline-block; white-space: nowrap;" xmlns="http://www.w3.org/1999/xhtml"><span class="edgeLabel"></span></div></foreignObject></g></g><g class="edgeLabel"><g transform="translate(0, 0)" class="label"><foreignObject height="0" width="0"><div style="display: inline-block; white-space: nowrap;" xmlns="http://www.w3.org/1999/xhtml"><span class="edgeLabel"></span></div></foreignObject></g></g><g class="edgeLabel"><g transform="translate(0, 0)" class="label"><foreignObject height="0" width="0"><div style="display: inline-block; white-space: nowrap;" xmlns="http://www.w3.org/1999/xhtml"><span class="edgeLabel"></span></div></foreignObject></g></g><g class="edgeLabel"><g transform="translate(0, 0)" class="label"><foreignObject height="0" width="0"><div style="display: inline-block; white-space: nowrap;" xmlns="http://www.w3.org/1999/xhtml"><span class="edgeLabel"></span></div></foreignObject></g></g><g class="edgeLabel"><g transform="translate(0, 0)" class="label"><foreignObject height="0" width="0"><div style="display: inline-block; white-space: nowrap;" xmlns="http://www.w3.org/1999/xhtml"><span class="edgeLabel"></span></div></foreignObject></g></g><g class="edgeLabel"><g transform="translate(0, 0)" class="label"><foreignObject height="0" width="0"><div style="display: inline-block; white-space: nowrap;" xmlns="http://www.w3.org/1999/xhtml"><span class="edgeLabel"></span></div></foreignObject></g></g><g class="edgeLabel"><g transform="translate(0, 0)" class="label"><foreignObject height="0" width="0"><div style="display: inline-block; white-space: nowrap;" xmlns="http://www.w3.org/1999/xhtml"><span class="edgeLabel"></span></div></foreignObject></g></g><g class="edgeLabel"><g transform="translate(0, 0)" class="label"><foreignObject height="0" width="0"><div style="display: inline-block; white-space: nowrap;" xmlns="http://www.w3.org/1999/xhtml"><span class="edgeLabel"></span></div></foreignObject></g></g><g class="edgeLabel"><g transform="translate(0, 0)" class="label"><foreignObject height="0" width="0"><div style="display: inline-block; white-space: nowrap;" xmlns="http://www.w3.org/1999/xhtml"><span class="edgeLabel"></span></div></foreignObject></g></g><g class="edgeLabel"><g transform="translate(0, 0)" class="label"><foreignObject height="0" width="0"><div style="display: inline-block; white-space: nowrap;" xmlns="http://www.w3.org/1999/xhtml"><span class="edgeLabel"></span></div></foreignObject></g></g><g transform="translate(710, 324)" class="edgeLabel"><g transform="translate(-60, -14)" class="label"><foreignObject height="28" width="120"><div style="display: inline-block; white-space: nowrap;" xmlns="http://www.w3.org/1999/xhtml"><span class="edgeLabel">规定校验规则</span></div></foreignObject></g></g><g transform="translate(337.5, 324)" class="edgeLabel"><g transform="translate(-40, -14)" class="label"><foreignObject height="28" width="80"><div style="display: inline-block; white-space: nowrap;" xmlns="http://www.w3.org/1999/xhtml"><span class="edgeLabel">执行校验</span></div></foreignObject></g></g><g transform="translate(482.5, 324)" class="edgeLabel"><g transform="translate(-85, -14)" class="label"><foreignObject height="28" width="170"><div style="display: inline-block; white-space: nowrap;" xmlns="http://www.w3.org/1999/xhtml"><span class="edgeLabel">提供订单/库存数据</span></div></foreignObject></g></g><g transform="translate(627.5, 445)" class="edgeLabel"><g transform="translate(-65, -14)" class="label"><foreignObject height="28" width="130"><div style="display: inline-block; white-space: nowrap;" xmlns="http://www.w3.org/1999/xhtml"><span class="edgeLabel">录入订单/数据</span></div></foreignObject></g></g><g transform="translate(1205, 324)" class="edgeLabel"><g transform="translate(-40, -14)" class="label"><foreignObject height="28" width="80"><div style="display: inline-block; white-space: nowrap;" xmlns="http://www.w3.org/1999/xhtml"><span class="edgeLabel">供人使用</span></div></foreignObject></g></g></g><g class="nodes"><g transform="translate(722.5, 35.5)" data-id="IS" data-node="true" id="flowchart-IS-37" class="node default default flowchart-label"><rect height="71" width="295" y="-35.5" x="-147.5" ry="0" rx="0" style="" class="basic label-container"/><g transform="translate(-140, -28)" style="" class="label"><rect/><foreignObject height="56" width="280"><div style="display: inline-block; white-space: nowrap;" xmlns="http://www.w3.org/1999/xhtml"><span class="nodeLabel">IS 信息系统<br />人、信息、技术与制度共同工作</span></div></foreignObject></g></g><g transform="translate(410, 170.5)" data-id="C" data-node="true" id="flowchart-C-39" class="node default default flowchart-label"><rect height="43" width="95" y="-21.5" x="-47.5" ry="0" rx="0" style="" class="basic label-container"/><g transform="translate(-40, -14)" style="" class="label"><rect/><foreignObject height="28" width="80"><div style="display: inline-block; white-space: nowrap;" xmlns="http://www.w3.org/1999/xhtml"><span class="nodeLabel">组成视角</span></div></foreignObject></g></g><g transform="translate(1067.5, 170.5)" data-id="F" data-node="true" id="flowchart-F-41" class="node default default flowchart-label"><rect height="43" width="95" y="-21.5" x="-47.5" ry="0" rx="0" style="" class="basic label-container"/><g transform="translate(-40, -14)" style="" class="label"><rect/><foreignObject height="28" width="80"><div style="display: inline-block; white-space: nowrap;" xmlns="http://www.w3.org/1999/xhtml"><span class="nodeLabel">功能视角</span></div></foreignObject></g></g><g transform="translate(27.5, 263.5)" data-id="H" data-node="true" id="flowchart-H-43" class="node default default flowchart-label"><rect height="43" width="55" y="-21.5" x="-27.5" ry="0" rx="0" style="" class="basic label-container"/><g transform="translate(-20, -14)" style="" class="label"><rect/><foreignObject height="28" width="40"><div style="display: inline-block; white-space: nowrap;" xmlns="http://www.w3.org/1999/xhtml"><span class="nodeLabel">硬件</span></div></foreignObject></g></g><g transform="translate(182.5, 263.5)" data-id="N" data-node="true" id="flowchart-N-45" class="node default default flowchart-label"><rect height="43" width="155" y="-21.5" x="-77.5" ry="0" rx="0" style="" class="basic label-container"/><g transform="translate(-70, -14)" style="" class="label"><rect/><foreignObject height="28" width="140"><div style="display: inline-block; white-space: nowrap;" xmlns="http://www.w3.org/1999/xhtml"><span class="nodeLabel">网络和通信设备</span></div></foreignObject></g></g><g transform="translate(337.5, 263.5)" data-id="S" data-node="true" id="flowchart-S-47" class="node default default flowchart-label"><rect height="43" width="55" y="-21.5" x="-27.5" ry="0" rx="0" style="" class="basic label-container"/><g transform="translate(-20, -14)" style="" class="label"><rect/><foreignObject height="28" width="40"><div style="display: inline-block; white-space: nowrap;" xmlns="http://www.w3.org/1999/xhtml"><span class="nodeLabel">软件</span></div></foreignObject></g></g><g transform="translate(482.5, 263.5)" data-id="D" data-node="true" id="flowchart-D-49" class="node default default flowchart-label"><rect height="43" width="95" y="-21.5" x="-47.5" ry="0" rx="0" style="" class="basic label-container"/><g transform="translate(-40, -14)" style="" class="label"><rect/><foreignObject height="28" width="80"><div style="display: inline-block; white-space: nowrap;" xmlns="http://www.w3.org/1999/xhtml"><span class="nodeLabel">信息资源</span></div></foreignObject></g></g><g transform="translate(627.5, 384.5)" data-id="U" data-node="true" id="flowchart-U-51" class="node default default flowchart-label"><rect height="43" width="95" y="-21.5" x="-47.5" ry="0" rx="0" style="" class="basic label-container"/><g transform="translate(-40, -14)" style="" class="label"><rect/><foreignObject height="28" width="80"><div style="display: inline-block; white-space: nowrap;" xmlns="http://www.w3.org/1999/xhtml"><span class="nodeLabel">信息用户</span></div></foreignObject></g></g><g transform="translate(710, 263.5)" data-id="R" data-node="true" id="flowchart-R-53" class="node default default flowchart-label"><rect height="43" width="95" y="-21.5" x="-47.5" ry="0" rx="0" style="" class="basic label-container"/><g transform="translate(-40, -14)" style="" class="label"><rect/><foreignObject height="28" width="80"><div style="display: inline-block; white-space: nowrap;" xmlns="http://www.w3.org/1999/xhtml"><span class="nodeLabel">规章制度</span></div></foreignObject></g></g><g transform="translate(750, 505.5)" data-id="I" data-node="true" id="flowchart-I-55" class="node default default flowchart-label"><rect height="43" width="155" y="-21.5" x="-77.5" ry="0" rx="0" style="" class="basic label-container"/><g transform="translate(-70, -14)" style="" class="label"><rect/><foreignObject height="28" width="140"><div style="display: inline-block; white-space: nowrap;" xmlns="http://www.w3.org/1999/xhtml"><span class="nodeLabel">输入：录入订单</span></div></foreignObject></g></g><g transform="translate(930, 263.5)" data-id="ST" data-node="true" id="flowchart-ST-57" class="node default default flowchart-label"><rect height="43" width="205" y="-21.5" x="-102.5" ry="0" rx="0" style="" class="basic label-container"/><g transform="translate(-95, -14)" style="" class="label"><rect/><foreignObject height="28" width="190"><div style="display: inline-block; white-space: nowrap;" xmlns="http://www.w3.org/1999/xhtml"><span class="nodeLabel">存储：保存订单/库存</span></div></foreignObject></g></g><g transform="translate(442.5, 384.5)" data-id="P" data-node="true" id="flowchart-P-59" class="node default default flowchart-label"><rect height="43" width="175" y="-21.5" x="-87.5" ry="0" rx="0" style="" class="basic label-container"/><g transform="translate(-80, -14)" style="" class="label"><rect/><foreignObject height="28" width="160"><div style="display: inline-block; white-space: nowrap;" xmlns="http://www.w3.org/1999/xhtml"><span class="nodeLabel">处理：校验可用量</span></div></foreignObject></g></g><g transform="translate(1205, 263.5)" data-id="O" data-node="true" id="flowchart-O-61" class="node default default flowchart-label"><rect height="43" width="205" y="-21.5" x="-102.5" ry="0" rx="0" style="" class="basic label-container"/><g transform="translate(-95, -14)" style="" class="label"><rect/><foreignObject height="28" width="190"><div style="display: inline-block; white-space: nowrap;" xmlns="http://www.w3.org/1999/xhtml"><span class="nodeLabel">输出：交期/缺料清单</span></div></foreignObject></g></g><g transform="translate(1342.5, 384.5)" data-id="CT" data-node="true" id="flowchart-CT-63" class="node default default flowchart-label"><rect height="43" width="275" y="-21.5" x="-137.5" ry="0" rx="0" style="" class="basic label-container"/><g transform="translate(-130, -14)" style="" class="label"><rect/><foreignObject height="28" width="260"><div style="display: inline-block; white-space: nowrap;" xmlns="http://www.w3.org/1999/xhtml"><span class="nodeLabel">控制：权限、规则与过程管理</span></div></foreignObject></g></g></g></g></g></svg>